<svg xmlns="http://www.w3.org/2000/svg" xmlns:xlink="http://www.w3.org/1999/xlink">
  <defs>
  <symbol id="success" width="61" height="60" viewBox="0 0 61 60" fill="none" xmlns="http://www.w3.org/2000/svg">
    <path d="M14.1087 1.19075C24.9151 -0.0170324 36.085 -0.0170324 46.8914 1.19075C50.9487 1.6442 54.5103 3.83827 56.7633 7.02464L28.7501 35.0378L20.1063 26.394C19.0812 25.3688 17.4191 25.3688 16.394 26.394C15.3688 27.4191 15.3688 29.0811 16.394 30.1063L26.894 40.6063C27.9191 41.6314 29.5812 41.6314 30.6063 40.6063L59.0103 12.2023C59.089 12.5857 59.1517 12.9751 59.1979 13.3698C60.4902 24.419 60.4902 35.5812 59.1979 46.6304C58.4459 53.0598 53.2838 58.095 46.8914 58.8095C36.085 60.0173 24.9151 60.0173 14.1087 58.8095C7.71635 58.095 2.55421 53.0598 1.80224 46.6304C0.509931 35.5812 0.509931 24.419 1.80224 13.3698C2.55421 6.94043 7.71636 1.90518 14.1087 1.19075Z" fill="#C6F4C6"/>
  </symbol>
  <symbol id="close" width="24" height="24" viewBox="0 0 24 24" xmlns="http://www.w3.org/2000/svg">
    <path d="M16.0659 8.99469C16.3588 8.70179 16.3588 8.22692 16.0659 7.93403C15.773 7.64113 15.2981 7.64113 15.0052 7.93403L12 10.9392L8.99482 7.93403C8.70192 7.64113 8.22705 7.64113 7.93416 7.93403C7.64126 8.22692 7.64126 8.70179 7.93416 8.99469L10.9394 11.9999L7.93415 15.0051C7.64125 15.298 7.64125 15.7729 7.93415 16.0658C8.22704 16.3586 8.70191 16.3586 8.99481 16.0658L12 13.0605L15.0052 16.0658C15.2981 16.3586 15.773 16.3586 16.0659 16.0658C16.3588 15.7729 16.3588 15.298 16.0659 15.0051L13.0607 11.9999L16.0659 8.99469Z"/>
  </symbol>
  <symbol id='backArrow' width="24" height="24" viewBox="0 0 24 24" fill="none" xmlns="http://www.w3.org/2000/svg">
    <path d="M11.25 12H0.75" stroke="#161616" stroke-width="1.5" stroke-linecap="round" stroke-linejoin="round"/>
    <path d="M6 17.25L0.75 12L6 6.75" stroke="#161616" stroke-width="1.5" stroke-linecap="round" stroke-linejoin="round"/>
  </symbol>
  <symbol id="details" viewBox="0 0 24 25" fill="none" xmlns="http://www.w3.org/2000/svg">
    <g clip-path="url(#clip0_11_6950)">
      <path d="M10 18.5C10 19.6 10.9 20.5 12 20.5C13.1 20.5 14 19.6 14 18.5C14 17.4 13.1 16.5 12 16.5C10.9 16.5 10 17.4 10 18.5ZM10 6.5C10 7.6 10.9 8.5 12 8.5C13.1 8.5 14 7.6 14 6.5C14 5.4 13.1 4.5 12 4.5C10.9 4.5 10 5.4 10 6.5ZM10 12.5C10 13.6 10.9 14.5 12 14.5C13.1 14.5 14 13.6 14 12.5C14 11.4 13.1 10.5 12 10.5C10.9 10.5 10 11.4 10 12.5Z" fill="#161616"/>
    </g>
    <defs>
      <clipPath id="clip0_11_6950">
        <rect width="24" height="24" fill="white" transform="translate(0 0.5)"/>
      </clipPath>
    </defs>
  </symbol>
  <symbol id="favorite" width="24" height="24" viewBox="0 0 24 24" fill="none" xmlns="http://www.w3.org/2000/svg">
    <path d="M11.5432 7.85453L12 8.39097L12.4568 7.85453C13.0442 7.16469 13.948 6.72793 14.88 6.72793C16.5198 6.72793 17.8 8.0081 17.8 9.64793C17.8 10.6604 17.35 11.626 16.4355 12.7441C15.5142 13.8705 14.185 15.0773 12.5249 16.5827L12.5241 16.5834L11.9984 17.0619L11.4755 16.5895C11.4753 16.5893 11.475 16.5891 11.4748 16.5889C9.81493 15.0805 8.48592 13.8723 7.56453 12.745C6.64992 11.626 6.19998 10.6604 6.19998 9.64793C6.19998 8.0081 7.48015 6.72793 9.11998 6.72793C10.0519 6.72793 10.9557 7.16469 11.5432 7.85453Z" stroke="#161616" stroke-width="1.2"/>
  </symbol>
  <symbol id="notification" width="24" height="24" viewBox="0 0 24 24" fill="none" xmlns="http://www.w3.org/2000/svg">
    <path d="M10.7394 6.04978C10.841 5.79869 11.0152 5.58366 11.2398 5.43225C11.4644 5.28084 11.7291 5.19995 12 5.19995C12.2708 5.19995 12.5355 5.28084 12.7601 5.43225C12.9847 5.58366 13.1589 5.79869 13.2605 6.04978C14.266 6.32629 15.1529 6.92523 15.785 7.75459C16.417 8.58395 16.7594 9.59788 16.7595 10.6407V13.8343L18.0051 15.7027C18.0734 15.8051 18.1126 15.9241 18.1186 16.0471C18.1246 16.17 18.0971 16.2923 18.039 16.4009C17.9809 16.5094 17.8945 16.6001 17.7889 16.6634C17.6833 16.7266 17.5625 16.76 17.4394 16.76H14.3559C14.274 17.3265 13.9908 17.8445 13.5581 18.2191C13.1255 18.5937 12.5723 18.8 12 18.8C11.4276 18.8 10.8744 18.5937 10.4418 18.2191C10.0091 17.8445 9.72587 17.3265 9.644 16.76H6.56052C6.43743 16.76 6.31664 16.7266 6.21103 16.6634C6.10543 16.6001 6.01898 16.5094 5.96091 16.4009C5.90284 16.2923 5.87532 16.17 5.88129 16.0471C5.88727 15.9241 5.9265 15.8051 5.99482 15.7027L7.24045 13.8343V10.6407C7.24045 8.44857 8.7227 6.60188 10.7394 6.04978ZM10.7569 16.76C10.8868 17.1826 11.0742 17.4409 11.2764 17.584C11.4486 17.7059 11.7893 17.7713 12.0003 17.7713C12.2113 17.7713 12.5765 17.7313 12.8347 17.5486C13.1624 17.3167 13.2485 16.959 13.3187 16.76H10.7569ZM12 6.85273C11.0983 6.85273 9.9363 7.28174 9.29874 7.91929C8.66118 8.55685 8.30301 9.73901 8.30301 10.6407V14.0403C8.30304 14.1746 8.26329 14.3059 8.18878 14.4177L7.24045 15.7027H16.7595L15.8042 14.4177C15.73 14.3058 15.6905 14.1745 15.6907 14.0403V10.6407C15.6907 9.73901 15.3325 8.55685 14.695 7.91929C14.0574 7.28174 12.9016 6.85273 12 6.85273Z" fill="#161616"/>
  </symbol>
  </defs>
</svg>
