<svg width="124" height="24" fill="none" xmlns="http://www.w3.org/2000/svg"><rect width="24" height="24" rx="12" fill="#EF1C31"/><path d="M14.375 9.07c0 .903-.723 1.636-1.615 1.636a1.626 1.626 0 01-1.614-1.637c0-.904.722-1.636 1.614-1.636.892 0 1.615.732 1.615 1.636zm-6.274 1.925c-.545-.087-.808.643-.333.924l2.192 1.294-5.08 6.747c-.222.295.181.652.447.397l7.302-7.016a1 1 0 00-.535-1.708L8.1 10.995zm4.183 3.809l-1.707 1.641 1.152 1.542-1.892 1.103c-.306.179-.104.647.236.547l3.296-.97a1 1 0 00.539-1.531l-1.624-2.332zM15.048 4.28a.523.523 0 00.265.634c.811.412 1.566.96 2.23 1.65.378.396.706.814.992 1.246a.52.52 0 00.695.17l2.265-1.327a.483.483 0 00.16-.693c-.19-.27-.394-.54-.615-.803-1.251-1.498-2.647-2.776-4.535-3.53a.48.48 0 00-.629.295l-.828 2.358zM3.007 7.266a.52.52 0 00.67-.047c1.027-.987 2.5-2.025 3.597-2.51l.126-.054a.526.526 0 00.28-.704l-.62-1.304a.481.481 0 00-.679-.216c-1.437.85-2.468 1.923-3.206 2.886-.255.336-.485.672-.692 1.01a.485.485 0 00.128.64l.396.3zm12.068-5.523a.48.48 0 00-.354-.636c-.57-.11-1.182-.176-1.84-.196-1.904-.068-3.496.228-4.824.722a.482.482 0 00-.26.662l.74 1.558a.518.518 0 00.576.28 9.766 9.766 0 014.548.144.522.522 0 00.635-.32l.78-2.214zM2.808 8.193c.013-.016.006-.04-.01-.051l-.425-.322a.481.481 0 00-.74.194c-1.386 3.424-.79 6.58-.692 7.041a.074.074 0 00.074.058.08.08 0 00.08-.094c-.092-.58-.468-3.774 1.71-6.822 0-.002.001-.003.003-.004zm16.777.542a.518.518 0 00-.206.653c.91 2.114 1.03 4.224 1.031 5.186 0 .29.234.539.525.539h2.286a.467.467 0 00.47-.398c.146-1.056.379-4.06-1.095-7.143a.484.484 0 00-.684-.201l-2.327 1.364z" fill="#fff"/><path d="M37.693 20.307c-.83 0-1.582-.156-2.258-.469a3.876 3.876 0 01-1.611-1.372c-.398-.602-.597-1.33-.597-2.182 0-.75.148-1.358.444-1.824.295-.471.69-.84 1.184-1.108a6.225 6.225 0 011.637-.596 19.93 19.93 0 011.815-.324c.795-.103 1.44-.18 1.934-.23.5-.057.864-.15 1.091-.281.233-.131.35-.358.35-.682v-.069c0-.84-.23-1.494-.69-1.96-.455-.466-1.145-.699-2.072-.699-.96 0-1.713.21-2.258.631-.545.42-.929.87-1.15 1.347l-1.91-.682c.341-.796.796-1.415 1.364-1.858a5.111 5.111 0 011.875-.938 7.785 7.785 0 012.011-.272c.42 0 .904.05 1.45.153a4.637 4.637 0 011.593.605c.517.307.946.77 1.287 1.39.34.619.511 1.448.511 2.488V20h-2.011v-1.773h-.102c-.137.284-.364.588-.682.912-.319.324-.742.6-1.27.827-.529.227-1.173.34-1.935.34zM38 18.5c.795 0 1.466-.156 2.011-.469.551-.312.966-.716 1.245-1.21a3.084 3.084 0 00.426-1.56v-1.84c-.085.102-.273.196-.563.28-.284.08-.613.151-.988.214-.37.057-.73.108-1.083.153-.346.04-.628.074-.843.103a7.68 7.68 0 00-1.466.332c-.45.148-.813.372-1.091.673-.273.296-.41.699-.41 1.21 0 .7.26 1.228.776 1.586.523.352 1.185.528 1.986.528zM53.057 6.91v1.704h-6.784V6.909h6.784zm-4.806-3.137h2.011V16.25c0 .568.082.994.247 1.278.17.279.387.466.648.563a2.6 2.6 0 00.844.136c.221 0 .403-.011.545-.034l.341-.068.41 1.807a4.08 4.08 0 01-.572.153 4.204 4.204 0 01-.929.085 4.05 4.05 0 01-1.67-.366 3.318 3.318 0 01-1.347-1.116c-.352-.5-.528-1.131-.528-1.892V3.773zm14.863 7.806v1.875h-7.636V11.58h7.636zM69.031 20L65.47 6.91h3.673l2.029 8.794h.119l2.113-8.795h3.605l2.148 8.744h.111l1.994-8.744h3.665L81.372 20h-3.844l-2.25-8.233h-.162L72.867 20h-3.835zm23.419.256c-1.324 0-2.47-.282-3.435-.844a5.774 5.774 0 01-2.225-2.37c-.522-1.016-.784-2.195-.784-3.536 0-1.353.262-2.534.784-3.546a5.705 5.705 0 012.225-2.37c.966-.567 2.11-.851 3.435-.851 1.323 0 2.465.284 3.426.852a5.69 5.69 0 012.233 2.37c.522 1.01.784 2.192.784 3.545 0 1.34-.262 2.52-.784 3.537a5.758 5.758 0 01-2.233 2.369c-.96.562-2.103.844-3.426.844zm.017-2.813c.602 0 1.105-.17 1.508-.511.404-.347.708-.818.912-1.415.21-.596.315-1.275.315-2.037 0-.761-.105-1.44-.315-2.037-.204-.596-.508-1.068-.912-1.415-.403-.346-.906-.52-1.508-.52-.608 0-1.12.174-1.534.52-.41.347-.72.819-.93 1.415-.204.597-.306 1.276-.306 2.037 0 .761.102 1.44.307 2.037.21.597.52 1.068.928 1.415.415.34.927.511 1.535.511zM101.254 20V6.91h3.519v2.283h.137c.238-.812.639-1.426 1.202-1.84a3.154 3.154 0 011.943-.631c.182 0 .378.01.588.034.21.022.395.054.554.093v3.222a4.777 4.777 0 00-.708-.136 6.343 6.343 0 00-.826-.06c-.534 0-1.012.116-1.432.35a2.577 2.577 0 00-.989.954c-.238.41-.358.88-.358 1.415V20h-3.63zm13.11-3.767l.008-4.355h.529l4.193-4.969h4.167l-5.633 6.58h-.861l-2.403 2.744zM111.074 20V2.545h3.631V20h-3.631zm8.182 0l-3.853-5.702 2.421-2.565L123.509 20h-4.253z" fill="#333153"/></svg>