<svg xmlns="http://www.w3.org/2000/svg"><defs><symbol id="success" viewBox="0 0 61 60" fill="none" xmlns="http://www.w3.org/2000/svg"><path d="M14.109 1.19a148.756 148.756 0 0132.782 0 14.012 14.012 0 019.872 5.835L28.75 35.038l-8.644-8.644a2.625 2.625 0 10-3.712 3.712l10.5 10.5a2.625 2.625 0 003.712 0L59.01 12.202c.079.384.142.773.188 1.168a143.159 143.159 0 010 33.26c-.752 6.43-5.914 11.465-12.307 12.18a148.754 148.754 0 01-32.782 0c-6.393-.715-11.555-5.75-12.307-12.18a143.158 143.158 0 010-33.26C2.554 6.94 7.716 1.905 14.11 1.19z" fill="#C6F4C6"/></symbol><symbol id="close" viewBox="0 0 24 24" xmlns="http://www.w3.org/2000/svg"><path d="M16.066 8.995a.75.75 0 10-1.06-1.061L12 10.939 8.995 7.934a.75.75 0 10-1.06 1.06L10.938 12l-3.005 3.005a.75.75 0 001.06 1.06L12 13.06l3.005 3.006a.75.75 0 001.06-1.06L13.062 12l3.005-3.005z"/></symbol><symbol id="backArrow" viewBox="0 0 24 24" fill="none" xmlns="http://www.w3.org/2000/svg"><path d="M11.25 12H.75M6 17.25L.75 12 6 6.75" stroke="#161616" stroke-width="1.5" stroke-linecap="round" stroke-linejoin="round"/></symbol><symbol id="details" viewBox="0 0 24 25" fill="none" xmlns="http://www.w3.org/2000/svg"><g clip-path="url(#clip0_11_6950)"><path d="M10 18.5c0 1.1.9 2 2 2s2-.9 2-2-.9-2-2-2-2 .9-2 2zm0-12c0 1.1.9 2 2 2s2-.9 2-2-.9-2-2-2-2 .9-2 2zm0 6c0 1.1.9 2 2 2s2-.9 2-2-.9-2-2-2-2 .9-2 2z" fill="#161616"/></g><defs><clipPath id="clip0_11_6950"><path fill="#fff" transform="translate(0 .5)" d="M0 0h24v24H0z"/></clipPath></defs></symbol><symbol id="favorite" viewBox="0 0 24 24" fill="none" xmlns="http://www.w3.org/2000/svg"><path d="M11.543 7.855L12 8.39l.457-.536a3.233 3.233 0 012.423-1.127c1.64 0 2.92 1.28 2.92 2.92 0 1.012-.45 1.978-1.364 3.096-.922 1.127-2.251 2.333-3.911 3.839h0l-.527.479-.522-.473h-.001c-1.66-1.508-2.99-2.717-3.91-3.844C6.65 11.626 6.2 10.66 6.2 9.648c0-1.64 1.28-2.92 2.92-2.92.932 0 1.836.437 2.423 1.127z" stroke="#161616" stroke-width="1.2"/></symbol><symbol id="notification" viewBox="0 0 24 24" fill="none" xmlns="http://www.w3.org/2000/svg"><path d="M10.74 6.05a1.36 1.36 0 012.52 0 4.762 4.762 0 013.5 4.59v3.194l1.245 1.869a.68.68 0 01-.566 1.057h-3.083a2.38 2.38 0 01-4.712 0H6.561a.68.68 0 01-.566-1.057l1.245-1.869v-3.193a4.762 4.762 0 013.5-4.591zm.017 10.71c.13.423.317.68.52.824.172.122.512.187.723.187.211 0 .576-.04.835-.222.327-.232.413-.59.484-.789h-2.562zM12 6.853c-.902 0-2.064.429-2.701 1.066-.638.638-.996 1.82-.996 2.722v3.4a.68.68 0 01-.114.377l-.949 1.285h9.52l-.956-1.285a.681.681 0 01-.113-.378v-3.4c0-.901-.359-2.083-.996-2.72-.638-.638-1.793-1.067-2.695-1.067z" fill="#161616"/></symbol></defs></svg>